<svg width="204" height="68" viewBox="0 0 204 68" fill="none" xmlns="http://www.w3.org/2000/svg">
<path d="M68 34C68 38.4649 67.1206 42.8862 65.4119 47.0112C63.7032 51.1363 61.1988 54.8844 58.0416 58.0416C54.8844 61.1988 51.1363 63.7032 47.0112 65.4119C42.8862 67.1206 38.4649 68 34 68C29.5351 68 25.1138 67.1206 20.9888 65.4119C16.8637 63.7032 13.1156 61.1988 9.95837 58.0416C6.80118 54.8844 4.29675 51.1363 2.58809 47.0112C0.879435 42.8862 -3.90338e-07 38.4649 0 34L34 34H68Z" fill="#EB2F95"/>
<path d="M204 34C204 43.0174 200.418 51.6654 194.042 58.0416C187.665 64.4179 179.017 68 170 68C160.983 68 152.335 64.4179 145.958 58.0416C139.582 51.6654 136 43.0174 136 34L170 34H204Z" fill="#01CAE6"/>
<path d="M136 34C136 29.5351 135.121 25.1138 133.412 20.9888C131.703 16.8637 129.199 13.1156 126.042 9.95837C122.884 6.80118 119.136 4.29676 115.011 2.5881C110.886 0.879436 106.465 -1.95169e-07 102 0C97.5351 1.95169e-07 93.1138 0.879436 88.9888 2.5881C84.8637 4.29676 81.1156 6.80118 77.9584 9.95837C74.8012 13.1156 72.2968 16.8637 70.5881 20.9888C68.8794 25.1138 68 29.5351 68 34L102 34H136Z" fill="#F8C900"/>
<path d="M31.12 39.92V48H24.92V22.92H34.08C37.9467 22.92 40.6933 23.5733 42.32 24.88C43.9467 26.1867 44.76 28.36 44.76 31.4C44.76 33.4533 44.32 35.1333 43.44 36.44C42.5867 37.72 41.28 38.6533 39.52 39.24L45.64 48H38.2L33 39.92H31.12ZM38.48 31.4C38.48 30.3333 38.16 29.5867 37.52 29.16C36.88 28.7333 35.7333 28.52 34.08 28.52H31.12V34.92H34.08C35.7333 34.92 36.88 34.6667 37.52 34.16C38.16 33.6267 38.48 32.7067 38.48 31.4Z" fill="white"/>
<path d="M100.12 40.96V48H93.92V22.92H103.08C106.947 22.92 109.693 23.6 111.32 24.96C112.947 26.2933 113.76 28.5467 113.76 31.72C113.76 34.8667 112.893 37.2 111.16 38.72C109.453 40.2133 106.8 40.96 103.2 40.96H100.12ZM107.48 31.72C107.48 30.5467 107.16 29.72 106.52 29.24C105.88 28.76 104.733 28.52 103.08 28.52H100.12V35.52H103.08C104.76 35.52 105.907 35.24 106.52 34.68C107.16 34.12 107.48 33.1333 107.48 31.72Z" fill="white"/>
<path d="M171.44 38.64L166.36 37.44C164.333 36.96 162.947 36.2267 162.2 35.24C161.48 34.2533 161.12 32.84 161.12 31C161.12 28.0933 161.88 25.96 163.4 24.6C164.947 23.2133 167.333 22.52 170.56 22.52C171.893 22.52 173.08 22.5733 174.12 22.68C175.16 22.7867 176.12 22.9733 177 23.24V28.8C174.973 28.4533 173.573 28.2533 172.8 28.2C172.053 28.1467 171.267 28.12 170.44 28.12C169.32 28.12 168.507 28.3067 168 28.68C167.493 29.0533 167.24 29.68 167.24 30.56C167.24 30.9867 167.32 31.32 167.48 31.56C167.64 31.7733 167.947 31.9333 168.4 32.04L173.2 33.16C174.587 33.48 175.587 33.8 176.2 34.12C176.813 34.4133 177.307 34.8 177.68 35.28C178.107 35.7867 178.413 36.44 178.6 37.24C178.813 38.04 178.92 39.0133 178.92 40.16C178.92 43.0667 178.147 45.1733 176.6 46.48C175.053 47.76 172.653 48.4 169.4 48.4C167.747 48.4 166.173 48.2933 164.68 48.08C163.187 47.8933 162.027 47.6533 161.2 47.36V41.48C162.267 41.8267 163.533 42.1067 165 42.32C166.467 42.5067 167.933 42.6 169.4 42.6C170.573 42.6 171.387 42.4533 171.84 42.16C172.293 41.8667 172.52 41.28 172.52 40.4C172.52 39.84 172.44 39.44 172.28 39.2C172.147 38.9333 171.867 38.7467 171.44 38.64Z" fill="white"/>
</svg>
