<svg width="121" height="206" viewBox="0 0 121 206" fill="none" xmlns="http://www.w3.org/2000/svg">
<g clip-path="url(#clip0_17_8)">
<path d="M28.63 205.68H104.05V165C104.05 165 119.71 163.92 120.05 155.46C120.39 147 119.87 26.22 119.87 26.22C119.87 26.22 118.07 14.88 107.09 16.32C96.11 17.76 96.29 27.12 96.29 27.12L96.47 89.58C96.47 89.58 96.47 91.22 94.09 91.29C91.46 91.29 91.97 88.59 91.97 88.59L92.15 18.66C92.15 18.66 92.15 8.49 80.63 7.86C68.39 7.86 68.75 18.66 68.75 18.66L68.57 88.05C68.57 88.05 68.78 91.41 66.57 91.29C64.36 91.17 64.41 89.61 64.41 89.61L64.8 11.88C64.8 11.88 65.11 1 52.63 0C42.55 1.2 41.47 8.52 41.47 8.52L40.87 75.72C40.87 75.72 56.23 74.16 60.19 85C63.43 95.08 64.51 107.68 42.07 113.2C42.07 113.2 77.07 127.72 73.27 163.72C73.27 163.72 72.19 167.72 70.58 164.45C69.02 160.25 70.3 116.26 25.75 116.8C25.75 116.8 22.6 116.98 23.05 115.63C23.5 114.28 27.43 113 27.43 113C27.43 113 36.19 110.12 43.87 108.56C51.55 107 64.51 99.2 55.63 86.56C46.75 73.92 7.00003 90.48 7.00003 90.48C7.00003 90.48 -0.379973 93.84 2.66228e-05 101.85C0.380027 109.86 16 161.76 16 161.76C16 161.76 17 166.32 22.48 165.66C28.18 165.36 27.82 165.72 27.82 165.72L28.63 205.68Z" fill="#F9C900"/>
<path d="M12.79 84.12C12.79 84.12 29.59 78.6 36.55 78.12V16.8C36.55 16.8 34.15 7.32003 24.07 7.92003C21.3639 7.94837 18.7534 8.92441 16.6925 10.6784C14.6316 12.4324 13.2507 14.8533 12.79 17.52V84.12Z" fill="#F9C900"/>
</g>
<defs>
<clipPath id="clip0_17_8">
<rect width="120.2" height="205.68" fill="white"/>
</clipPath>
</defs>
</svg>
