<svg width="120" height="151" viewBox="0 0 120 151" fill="none" xmlns="http://www.w3.org/2000/svg">
<g clip-path="url(#clip0_17_13)">
<path d="M96.1301 62.4801V21.4801C96.1301 21.4801 98.6501 10.8601 108.55 11.7601C118.45 12.6601 119.35 20.7601 119.35 20.7601V64.2801C118.149 66.3365 116.464 68.0679 114.44 69.3229C112.416 70.5779 110.116 71.3185 107.74 71.4801C97.7501 70.4001 96.1301 62.4801 96.1301 62.4801Z" fill="#ED3493"/>
<path d="M91.0901 60.68V17.3C91.0901 17.3 91.0901 9.56001 79.7501 7.76001C77.1904 8.01437 74.7637 9.02241 72.7771 10.6565C70.7905 12.2907 69.3333 14.4774 68.5901 16.94V59.42C68.5901 59.42 69.7601 65.54 78.8501 67.34C89.0001 66.62 91.0901 60.68 91.0901 60.68Z" fill="#ED3493"/>
<path d="M40.4502 22V10.82C40.4502 10.82 40.6902 0.740043 52.9302 4.31333e-05C65.1702 -0.739957 64.9302 14.76 64.9302 14.76L64.3302 51.76C64.3302 51.76 61.6902 58.58 52.6902 60C51.313 60.0283 49.9476 59.7401 48.6993 59.1576C47.4511 58.5751 46.3532 57.7138 45.4902 56.64C45.4902 56.64 61.6902 56.28 62.1702 38.04C60.3702 18.26 40.4502 22 40.4502 22Z" fill="#ED3493"/>
<path d="M12.79 28.64V13.52C12.79 13.52 14.86 4.43001 24.13 4.34001C33.4 4.25001 36 13.43 36 13.43V22.34L12.79 28.64Z" fill="#ED3493"/>
<path d="M28.6301 150.32V110.54H20.3501C20.3501 110.54 16.4801 110.36 13.9601 101.18C11.4401 92.0001 0.280092 51.5001 0.280092 51.5001C0.280092 51.5001 -2.50991 36.9201 9.46009 33.7701C21.4301 30.6201 39.7901 25.0001 39.7901 25.0001C39.7901 25.0001 56.3501 22.5201 57.8801 37.0001C59.4101 51.4801 43.1201 53.3901 43.1201 53.3901L25.6601 58.0001C25.6601 58.0001 22.8701 58.5401 23.2301 61.0001C23.5901 63.4601 29.4401 60.9101 29.4401 60.9101C29.4401 60.9101 51.9101 58.0001 64.9301 84.6201C64.9301 84.6201 68.4101 91.4601 69.7601 108.11C69.7601 108.11 70.4801 113.11 73.9001 109.46C73.9001 109.46 75.6101 89.2101 62.7401 74.0001C56.9801 66.5301 51.7401 64.0001 51.7401 64.0001C51.7401 64.0001 59.0301 63.6401 63.8001 58.1501C63.8001 58.1501 67.8001 70.6601 79.2801 71.4701C81.9368 71.8205 84.6377 71.3746 87.0409 70.1891C89.4441 69.0035 91.4415 67.1315 92.7801 64.8101C92.7801 64.8101 98.0901 75.5201 107.27 75.7001C116.45 75.8801 119.35 70.0001 119.35 70.0001V99.3801C119.35 99.3801 118.63 111.26 104.77 110.63V150.32H28.6301Z" fill="#ED3493"/>
</g>
<defs>
<clipPath id="clip0_17_13">
<rect width="119.35" height="150.32" fill="white"/>
</clipPath>
</defs>
</svg>
