<svg width="126" height="207" viewBox="0 0 126 207" fill="none" xmlns="http://www.w3.org/2000/svg">
<g clip-path="url(#clip0_17_21)">
<path d="M16.71 84.24L39.51 78L22.71 14.64C22.71 14.64 17.91 3.12004 6.14998 7.64004C-4.41002 11.24 1.82998 28.04 1.82998 28.04L16.71 84.24Z" fill="#00CAE5"/>
<path d="M46 76.32V9.32001C46 9.32001 47.43 0.240013 58.23 1.25535e-05C69.03 -0.239987 69.51 11.76 69.51 11.76V113.76C69.51 113.76 76.71 138 98.31 120C98.31 120 104.55 138.24 125.19 125.52V152.88C125.19 152.88 126.19 163.68 110.55 165.88L110.31 206.44H34V165.84C34 165.84 22.09 167.04 19.77 158.84C17.45 150.64 5.67997 106.04 5.67997 106.04C5.67997 106.04 2.55997 92.12 14.56 89.24C26.56 86.36 46.47 80.4 46.47 80.4C46.47 80.4 60.87 78.72 62.55 92.4C64.23 106.08 53.19 106.8 53.19 106.8L30.87 113.28C30.87 113.28 24.15 117.36 32.31 117.6C39.51 116.6 49.11 114.24 63.51 130.08C77.4 146.24 75.87 163.32 75.87 163.32C75.87 163.32 75.33 166.47 76.95 166.65C77.67 166.8 79.02 166.65 79.2 163.95C79.38 161.25 83.43 129.48 47.25 113.28C47.25 113.28 67.68 110.49 67.86 93.93C68.04 77.37 51.84 75.81 46 76.32Z" fill="#00CAE5"/>
<path d="M74.3099 71.6401C74.3099 71.6401 78.1799 61.7401 88.2299 63.7201C96.7499 65.4001 97.3499 75.7201 97.3499 75.7201V115.44C97.3499 115.44 94.3499 122.93 84.5099 122.76C75.0299 121.76 74.3099 114.96 74.3099 114.96V71.6401Z" fill="#00CAE5"/>
<path d="M101.79 74.64C101.79 74.64 114.05 56.16 125.2 76.44V118.32C125.2 118.32 124.2 125.4 113.5 126.72C103.11 126 101.79 119.72 101.79 119.72V74.64Z" fill="#00CAE5"/>
</g>
<defs>
<clipPath id="clip0_17_21">
<rect width="125.2" height="206.4" fill="white"/>
</clipPath>
</defs>
</svg>
