<svg xmlns="http://www.w3.org/2000/svg" xmlns:xlink="http://www.w3.org/1999/xlink" viewBox="0,0,256,256" width="48px" height="48px" fill-rule="nonzero"><g fill="none" fill-rule="nonzero" stroke="none" stroke-width="1" stroke-linecap="butt" stroke-linejoin="miter" stroke-miterlimit="10" stroke-dasharray="" stroke-dashoffset="0" font-family="none" font-weight="none" font-size="none" text-anchor="none" style="mix-blend-mode: normal"><g transform="scale(5.33333,5.33333)"><path d="M24,6c-0.552,0 -1,0.448 -1,1v4c0,0.552 0.448,1 1,1c7.72,0 14,6.28 14,14c0,7.72 -6.28,14 -14,14c-7.72,0 -14,-6.28 -14,-14c0,-2.405 0.628,-4.755 1.825,-6.858l3.546,2.658c0.304,0.228 0.709,0.263 1.047,0.094c0.339,-0.169 0.553,-0.516 0.552,-0.895l-0.014,-11.985c0,-0.308 -0.143,-0.599 -0.385,-0.788c-0.244,-0.189 -0.558,-0.256 -0.858,-0.182l-11.971,3c-0.374,0.094 -0.661,0.395 -0.737,0.772c-0.076,0.378 0.072,0.767 0.38,0.998l3.614,2.709c-1.965,3.161 -2.999,6.763 -2.999,10.477c0,11.028 8.972,20 20,20c11.028,0 20,-8.972 20,-20c0,-11.028 -8.972,-20 -20,-20z" fill="#ffffff"></path><path d="M24,5v4c8.271,0 15,6.729 15,15c0,8.271 -6.729,15 -15,15c-8.271,0 -15,-6.729 -15,-15c0,-3.079 0.951,-5.931 2.551,-8.313l4.42,3.313l-0.015,-11.985l-11.971,3l4.364,3.272c-2.102,3.051 -3.349,6.734 -3.349,10.713c0,10.477 8.523,19 19,19c10.477,0 19,-8.523 19,-19c0,-10.477 -8.523,-19 -19,-19z" fill="#15155a"></path><path d="M24,44c-11.028,0 -20,-8.972 -20,-20c0,-3.714 1.034,-7.316 2.999,-10.476l-3.614,-2.709c-0.309,-0.231 -0.457,-0.62 -0.38,-0.998c0.076,-0.378 0.363,-0.679 0.737,-0.772l11.971,-3c0.3,-0.074 0.614,-0.008 0.858,0.182c0.243,0.189 0.385,0.479 0.385,0.788l0.015,11.985c0,0.379 -0.213,0.726 -0.552,0.895c-0.338,0.169 -0.744,0.134 -1.047,-0.094l-3.546,-2.658c-1.198,2.102 -1.826,4.452 -1.826,6.857c0,7.72 6.28,14 14,14c7.72,0 14,-6.28 14,-14c0,-7.72 -6.28,-14 -14,-14c-0.552,0 -1,-0.448 -1,-1v-4c0,-0.552 0.448,-1 1,-1c11.028,0 20,8.972 20,20c0,11.028 -8.972,20 -20,20zM6.265,10.474l2.685,2.012c0.429,0.322 0.528,0.926 0.223,1.368c-2.076,3.012 -3.173,6.52 -3.173,10.146c0,9.925 8.075,18 18,18c9.925,0 18,-8.075 18,-18c0,-9.59 -7.538,-17.452 -17,-17.973v2.003c8.358,0.519 15,7.484 15,15.97c0,8.822 -7.178,16 -16,16c-8.822,0 -16,-7.178 -16,-16c0,-3.152 0.941,-6.219 2.721,-8.871c0.153,-0.228 0.393,-0.382 0.663,-0.428c0.27,-0.046 0.548,0.021 0.767,0.186l2.817,2.112l-0.011,-8.703z" fill="#ffffff"></path><rect x="3" y="10" width="2" height="2" fill="#ffffff"></rect></g></g></svg>